<?xml version="1.0" encoding="UTF-8" standalone="no"?>
<!DOCTYPE svg PUBLIC "-//W3C//DTD SVG 1.1//EN" "http://www.w3.org/Graphics/SVG/1.1/DTD/svg11.dtd">
<svg width="100%" height="100%" viewBox="0 0 1000 1000" version="1.1" xmlns="http://www.w3.org/2000/svg" xmlns:xlink="http://www.w3.org/1999/xlink" xml:space="preserve" xmlns:serif="http://www.serif.com/" style="fill-rule:evenodd;clip-rule:evenodd;stroke-linecap:square;stroke-linejoin:round;stroke-miterlimit:1.5;">
    <g transform="matrix(1.01322,0,0,1.01322,-30.24,-97.8465)">
        <circle cx="523.324" cy="590.048" r="493.478" style="fill:rgb(246,246,246);"/>
    </g>
    <g transform="matrix(2.17371,0,0,2.17371,58.2279,153.165)">
        <g>
            <g transform="matrix(1.25348,0,0,1.75089,-166.721,-265.219)">
                <path d="M295.143,330.697C295.143,330.697 311.483,324.757 318.7,316.134C328,305.021 338.5,279.31 338.5,279.31L251.785,279.31C251.785,279.31 262.285,305.021 271.586,316.134C278.802,324.757 295.143,330.697 295.143,330.697" style="fill:rgb(78,78,78);"/>
            </g>
            <g transform="matrix(0.708919,1.22788,-1.16615,0.673276,895.149,-1090.83)">
                <path d="M612.91,843.719L612.91,854.816C612.91,889.305 584.91,917.305 550.422,917.305C515.934,917.305 487.934,889.305 487.934,854.816L487.934,794.283" style="fill:none;stroke:rgb(232,28,99);stroke-width:34.36px;"/>
            </g>
            <g transform="matrix(-0.708919,1.22788,1.16615,0.673276,-488.681,-1090.83)">
                <path d="M612.91,843.719L612.91,854.816C612.91,889.305 584.91,917.305 550.422,917.305C515.934,917.305 487.934,889.305 487.934,854.816L487.934,794.283" style="fill:none;stroke:rgb(232,28,99);stroke-width:34.36px;"/>
            </g>
            <g transform="matrix(-1.51792,0,0,1.51792,564.769,-163.416)">
                <circle cx="293.241" cy="214.379" r="44.678" style="fill:none;stroke:rgb(78,78,78);stroke-width:15.15px;"/>
            </g>
            <g transform="matrix(1.51792,0,0,1.51792,-158.301,-163.416)">
                <circle cx="293.241" cy="214.379" r="44.678" style="fill:none;stroke:rgb(78,78,78);stroke-width:15.15px;"/>
            </g>
            <g transform="matrix(5.14862,0,0,5.14862,-1219.12,-851.255)">
                <circle cx="291.6" cy="196.8" r="3.926" style="fill:rgb(78,78,78);stroke:rgb(78,78,78);stroke-width:8.63px;"/>
            </g>
            <g transform="matrix(5.14862,0,0,5.14862,-1377.08,-851.255)">
                <circle cx="291.6" cy="196.8" r="3.926" style="fill:rgb(78,78,78);stroke:rgb(78,78,78);stroke-width:8.63px;"/>
            </g>
            <g transform="matrix(2.91364,0,0,2.91364,55.5072,-1008.09)">
                <circle cx="70.873" cy="394.653" r="4.706" style="fill:white;"/>
            </g>
            <g transform="matrix(2.91364,0,0,2.91364,-102.459,-1008.09)">
                <circle cx="70.873" cy="394.653" r="4.706" style="fill:white;"/>
            </g>
        </g>
    </g>
</svg>
